<svg width="103" height="120" viewBox="0 0 103 120" fill="none" xmlns="http://www.w3.org/2000/svg">
<path d="M0.428912 3.41201C0.643368 5.12766 1.14377 9.98866 1.50119 14.3493C1.85862 18.6384 2.64496 27.86 3.28833 34.7226C4.50358 48.3048 6.57665 71.895 8.36379 92.2683C8.93567 99.3454 9.72201 105.35 9.93646 105.565C10.5083 106.065 50.2542 119.075 51.255 119.075C52.3273 119.075 91.9302 106.065 92.5021 105.493C92.8595 105.207 93.8603 95.8426 94.7896 84.6909C95.7904 73.5391 96.7197 62.9593 96.9341 61.1722C97.1486 59.385 98.2924 46.6607 99.4361 32.9355C100.58 19.1388 101.795 6.19994 102.01 4.12687L102.51 0.409627H51.255H0L0.428912 3.41201ZM83.3519 27.0022C83.066 30.2905 82.5656 33.2929 82.2082 33.7218C81.8507 34.1507 75.703 37.0101 68.483 40.084C61.3344 43.1579 55.1867 45.9458 54.8293 46.3032C54.4004 46.5892 60.2622 46.8751 67.8396 46.8751H81.5648V48.6622C81.5648 49.663 81.1359 55.0959 80.564 60.6718C79.9921 66.2476 79.3487 73.2532 79.0628 76.1841C78.205 87.2643 78.5624 86.478 72.7721 88.1936C69.9127 88.98 63.9794 90.6956 59.5473 91.9824L51.398 94.3414L38.4591 90.5527C31.3106 88.4796 25.2343 86.478 25.0199 86.0491C24.5195 85.3342 23.4472 74.3255 23.3757 69.393L23.3042 66.5336L29.6664 66.3191C37.0294 66.1047 37.2439 66.2476 37.2439 71.609C37.2439 73.6821 37.6013 75.6122 38.1732 76.0411C38.6021 76.3986 41.9619 77.4708 45.4647 78.3287L51.8984 79.9728L58.6895 77.8283L65.4806 75.7552L66.124 68.8926C66.4814 65.1039 66.5529 61.5296 66.3384 60.8862C65.9095 59.8854 63.336 59.7425 44.1779 59.7425H22.4464L21.946 56.4541C21.7315 54.5955 21.5171 51.6646 21.5171 49.949C21.5171 46.3032 19.444 47.59 39.9603 38.9402L50.8976 34.3652L35.5997 34.1507L20.2304 34.0077L19.444 28.5749C19.0151 25.644 18.6577 22.7845 18.6577 22.2127C18.6577 21.2834 23.1613 21.1404 51.255 21.1404H83.9238L83.3519 27.0022Z" fill="#2E82B0"/>
</svg>
