<svg width="84" height="63" viewBox="0 0 84 63" fill="none" xmlns="http://www.w3.org/2000/svg">
<path d="M8.20364 0.392755C4.84364 1.09094 2.53091 2.83639 0.829091 6.06548C0.0436364 7.50548 0 8.98912 0 31.3746C0 55.0691 0 55.1564 0.96 56.9455C1.48364 57.9491 2.57455 59.3018 3.36 59.9564C6.45818 62.5746 4.84364 62.4437 41.4545 62.4873H75.0545L77.3673 61.3091C79.8982 60 81.9927 57.5128 82.6909 54.8946C82.9964 53.8037 83.1273 45.0764 83.04 30.3709L82.9091 7.50548L81.6 5.41094C79.8109 2.53094 77.4545 0.916391 74.1818 0.392755C70.9964 -0.130882 10.8655 -0.130882 8.20364 0.392755ZM74.9236 8.55276C75.4909 9.07639 75.7091 9.86185 75.7091 11.6946V14.1382L71.6945 17.4109C69.4691 19.2 62.9673 24.6109 57.1636 29.3673C51.4036 34.1237 46.08 38.3128 45.2945 38.6618C43.3745 39.4473 39.3164 39.4037 37.5273 38.5309C36.7418 38.1818 33.5564 35.7818 30.5018 33.2509C27.4036 30.72 20.9018 25.3964 16.0582 21.4255L7.2 14.1818V11.7818C7.2 7.41821 3.97091 7.81094 41.3673 7.81094C71.2145 7.81094 74.1818 7.85457 74.9236 8.55276ZM16.1891 31.2C30.8073 43.2437 31.8109 44.0291 34.2545 45.2509C36.4364 46.2982 37.0909 46.4291 41.4545 46.4291C45.8618 46.4291 46.4727 46.3418 48.6545 45.2073C49.9636 44.5091 54.4145 41.2364 58.4727 37.8764C62.5745 34.5164 67.8982 30.1091 70.3418 28.0582C72.8291 26.0509 75.0109 24.3928 75.2727 24.3928C75.5345 24.3928 75.7091 29.4982 75.7091 38.9237C75.7091 53.1928 75.7091 53.4982 74.7927 54.3273C73.92 55.1128 72.7418 55.1564 41.4545 55.1564C10.1673 55.1564 8.98909 55.1128 8.11636 54.3273C7.2 53.4982 7.2 53.1928 7.2 38.9237C7.2 30.9382 7.37455 24.3928 7.54909 24.3928C7.72364 24.3928 11.6073 27.4473 16.1891 31.2Z" fill="#E8F1F2"/>
</svg>
