<svg width="133" height="130" viewBox="0 0 133 130" fill="none" xmlns="http://www.w3.org/2000/svg">
<path d="M50.9238 1.3511C22.3595 7.41019 3.46092 28.7613 0.359245 58.4797C-2.6703 88.0539 13.7037 116.402 40.3204 127.438C44.7205 129.313 46.1631 129.602 47.6058 129.025C49.4812 128.376 49.4812 128.304 49.4812 119.503V110.631L45.009 110.92C35.199 111.425 29.4285 108.539 26.3989 101.47C25.4612 99.3065 22.9366 95.772 20.5562 93.3195C18.1759 90.867 16.5168 88.6309 16.8054 88.4145C17.8152 87.3326 22.5759 87.9817 25.1006 89.5686C26.5432 90.4342 29.0678 92.9589 30.7269 95.1228C34.2613 99.8835 37.1466 101.615 41.6188 101.615C47.3894 101.615 49.4812 100.893 49.9861 98.8016C50.2025 97.7917 50.996 95.772 51.7173 94.3294L52.9435 91.8047L48.0386 90.9392C32.458 88.2703 25.9661 81.9226 24.235 67.7126C23.153 58.4076 24.3071 52.2764 28.058 47.8042C29.717 45.8566 29.7891 45.4238 29.2121 41.5287C28.4908 37.0565 29.4285 29.1941 30.9433 27.4629C32.1695 25.9481 36.9302 27.1023 43.8549 30.7089L50.2025 33.9548L53.9534 33.0171C58.9305 31.863 73.1405 31.7908 79.0554 32.945L83.7439 33.8827L88.0719 31.2859C92.2555 28.7613 98.1704 26.5973 100.767 26.5973C102.498 26.5973 103.22 28.1121 104.302 33.522C104.951 36.9122 104.951 38.9319 104.374 41.7451C103.58 45.2795 103.652 45.5681 105.384 47.6599C109.351 52.3485 110.216 55.1616 110.144 62.5912C110.072 72.834 108.197 78.4603 103.292 83.2932C98.9638 87.549 94.5638 89.4244 86.0522 90.7949C82.9505 91.2998 80.5701 91.949 80.7144 92.1654C83.4554 97.0704 83.6718 98.4409 83.9603 113.372C84.321 131.766 84.1046 131.477 94.5638 126.861C108.99 120.585 122.695 106.015 128.466 90.7949C133.948 76.2242 134.525 58.0469 129.836 44.1254C122.335 21.9809 102.57 5.02983 79.416 0.990436C70.9766 -0.452206 58.642 -0.307942 50.9238 1.3511Z" fill="#E8F1F2"/>
<path d="M28.5629 96.5654C28.5629 96.9261 28.9235 97.2867 29.3563 97.2867C29.717 97.2867 29.8612 96.9261 29.6448 96.5654C29.4285 96.1326 29.0678 95.8441 28.8514 95.8441C28.7071 95.8441 28.5629 96.1326 28.5629 96.5654Z" fill="#E8F1F2"/>
<path d="M32.1696 100.893C32.1696 101.254 32.5302 101.615 32.963 101.615C33.3237 101.615 33.4679 101.254 33.2515 100.893C33.0351 100.461 32.6745 100.172 32.4581 100.172C32.3138 100.172 32.1696 100.461 32.1696 100.893Z" fill="#E8F1F2"/>
<path d="M47.3173 103.851C47.3173 104.211 47.6779 104.356 48.0386 104.139C48.4714 103.923 48.7599 103.562 48.7599 103.346C48.7599 103.202 48.4714 103.057 48.0386 103.057C47.6779 103.057 47.3173 103.418 47.3173 103.851Z" fill="#E8F1F2"/>
<path d="M42.2679 104.5C42.2679 104.861 42.6286 105.221 42.9893 105.221C43.4221 105.221 43.7106 104.861 43.7106 104.5C43.7106 104.067 43.4221 103.779 42.9893 103.779C42.6286 103.779 42.2679 104.067 42.2679 104.5Z" fill="#E8F1F2"/>
</svg>
