<svg width="103" height="39" viewBox="0 0 103 39" fill="none" xmlns="http://www.w3.org/2000/svg">
<path d="M44.8122 0.408868C36.1256 2.22398 28.7787 9.44122 27.2661 17.6957C24.8892 30.5311 35.4773 40.6007 48.2263 37.6187C53.8445 36.279 57.3019 33.9885 61.0185 29.1049L63.3523 26.0798L64.5191 28.6296C67.6307 35.5011 76.1013 39.4338 84.4422 37.8348C91.3569 36.4951 97.753 31.5683 100.692 25.3019C103.587 19.2515 102.982 12.1639 99.1791 6.97785C95.4193 1.83503 88.6774 -0.498689 81.3305 0.797821C73.9836 2.09433 68.279 6.28638 64.9081 12.8554L63.3955 15.7509H54.925H46.4976L45.1147 18.6464C42.9971 23.141 42.781 22.8385 48.6585 23.0978C51.6837 23.2274 53.8877 23.4867 53.9742 23.746C54.1903 24.4375 51.5972 26.9009 49.6957 27.8949C47.8806 28.8456 43.4292 29.0185 41.8734 28.2406C40.4905 27.5059 38.5457 25.6476 37.8542 24.3079C37.5085 23.6164 37.2492 21.8877 37.2492 20.2022C37.2492 17.7389 37.4653 16.9178 38.5025 15.0594C41.9599 9.05226 49.2635 7.45324 53.7149 11.6885L54.8385 12.7689L58.6416 11.6453C60.716 11.0402 62.7904 10.5649 63.2226 10.5649C65.1674 10.5649 63.309 7.06428 59.5924 3.82301C55.8325 0.495302 50.4304 -0.714774 44.8122 0.408868ZM88.2885 10.2623C89.3257 10.8242 90.7518 12.0775 91.4433 13.0714C92.6102 14.6705 92.7398 15.2323 92.6966 17.8685C92.6534 21.2827 91.7026 23.53 89.2825 25.8637C85.3065 29.71 79.6018 30.1854 75.8852 26.9009C72.2982 23.7028 71.9092 18.8193 74.8912 14.2815C77.7867 9.95982 84.0964 8.05827 88.2885 10.2623Z" fill="#2E82B0"/>
<path d="M7.90478 10.3056C7.12687 11.2131 7.73191 11.2995 16.6346 11.386C24.5865 11.4724 26.0127 11.2995 26.0127 10.0895C26.0127 9.87339 22.0367 9.70052 17.1964 9.70052C10.2385 9.70052 8.29373 9.83017 7.90478 10.3056Z" fill="#2E82B0"/>
<path d="M0.0825575 15.1027C-0.392829 15.6645 0.903681 15.751 11.4918 15.751C21.8207 15.751 23.4197 15.6645 23.4197 15.1027C23.4197 14.5409 21.8639 14.4545 12.0104 14.4545C2.41628 14.4545 0.514727 14.5409 0.0825575 15.1027Z" fill="#2E82B0"/>
<path d="M12.0536 19.5108C11.2325 20.2887 12.2265 20.5048 17.1532 20.5048C21.6478 20.5048 22.5553 20.4183 22.5553 19.8565C22.5553 19.3379 21.691 19.2083 17.4557 19.2083C14.6466 19.2083 12.1833 19.3379 12.0536 19.5108Z" fill="#2E82B0"/>
</svg>
