<svg width="103" height="119" viewBox="0 0 103 119" fill="none" xmlns="http://www.w3.org/2000/svg">
<path d="M0 0.14334C0 0.286714 0.645181 7.45539 1.43374 16.1295C2.22229 24.8036 3.87109 42.8687 5.01807 56.2741C8.24398 93.4078 9.39097 104.949 9.89277 105.451C10.4663 105.953 50.2524 119 51.1844 119C52.188 119 92.0458 105.953 92.6193 105.451C92.8344 105.236 93.7663 97.2789 94.6265 87.8163C95.4151 78.3536 96.6338 65.1632 97.2073 58.4964C99.3579 34.3379 99.6446 30.9687 100.72 17.5632C101.293 10.0361 101.939 3.0825 102.154 1.93551L102.512 -3.32892e-05H51.256C23.0831 -3.32892e-05 0 0.0716535 0 0.14334ZM83.5151 27.0259C83.2283 30.5385 82.5832 33.5494 82.153 33.8361C81.7229 34.1946 70.5398 34.4096 57.3494 34.4096C34.6247 34.3379 33.3343 34.4096 33.4777 35.6283C33.5494 36.3452 33.8362 39.1409 34.0512 41.7934L34.553 46.6681L56.8476 46.5964C69.1777 46.5964 79.7874 46.5247 80.5759 46.5964C81.7946 46.5964 81.8663 47.0265 81.4362 51.3994C81.1494 54.1235 80.2892 63.0126 79.5723 71.2566C78.8554 79.4289 77.9952 86.4542 77.6368 86.741C77.35 87.0994 73.5506 88.3181 69.1777 89.6084C64.8765 90.8271 59.1416 92.4759 56.4892 93.2645L51.7578 94.6265L42.1518 92.0458C36.9187 90.612 30.7536 88.9632 28.5313 88.3898C26.309 87.8163 24.3018 86.8843 24.1584 86.3825C23.9434 85.9524 23.5849 81.0777 23.2982 75.7012L22.7247 65.8801L29.4633 66.0952L36.2018 66.3102L36.5603 71.2566L36.9187 76.2747L43.7289 78.3536L50.5392 80.3608L55.9157 78.9271C65.3066 76.4897 64.9482 76.7048 65.5217 71.5434C65.8085 69.0343 66.1669 65.5217 66.4536 63.6578L66.8838 60.2169L44.3741 60.0735L21.8645 59.8584L21.3627 54.4819C19.3554 32.044 18.6386 23.7283 18.6386 22.3662V20.7891H51.3277H84.0169L83.5151 27.0259Z" fill="#2E82B0"/>
</svg>
