<svg width="103" height="102" viewBox="0 0 103 102" fill="none" xmlns="http://www.w3.org/2000/svg">
<path d="M5.58253 1.18185C4.3556 1.85666 2.69925 3.45167 1.90174 4.61725L0.368079 6.88707L0.18404 50.1977L0 93.5083L1.47232 96.2076C2.39251 97.9253 3.80348 99.4589 5.33715 100.318L7.72966 101.729H51.2857H94.8417L97.2956 100.318C98.8906 99.4589 100.24 98.048 101.16 96.2076L102.51 93.5083V50.8112C102.51 10.5679 102.449 8.05266 101.344 5.66014C100.731 4.24918 99.2586 2.47013 98.1544 1.67262L96.0686 0.200307L51.8991 0.0776136C8.28178 -0.106426 7.72966 -0.0450794 5.58253 1.18185ZM85.0263 47.069C87.5415 48.1733 90.4861 50.8112 91.529 52.7743C92.0198 53.6945 91.529 54.2466 88.339 56.3324L84.5968 58.7249L83.1245 56.9458C80.3639 53.6945 75.3335 54.0625 74.0452 57.682C73.0637 60.4426 74.7814 62.0989 82.143 65.5343C92.2038 70.3194 94.7803 73.3253 94.7803 80.5642C94.7803 84.3677 94.5963 85.2266 93.0013 87.6191C89.5045 92.7722 84.9649 94.6739 77.3579 94.2445C71.346 93.8764 67.0517 91.9747 63.8004 88.3552C62.4507 86.8216 61.4692 85.1652 61.5305 84.6744C61.6532 84.1837 63.3096 82.9567 65.2113 81.9138L68.7081 79.9508L70.7325 81.8525C73.6158 84.6131 74.9654 85.1652 78.8303 85.1652C83.0018 85.1652 84.7195 83.8156 84.7195 80.6256C84.7195 78.049 84.3514 77.8036 76.315 73.8161C67.1131 69.2765 64.7819 66.8226 64.0457 60.7493C63.3709 54.9214 66.3769 49.4002 71.53 47.069C74.8427 45.5354 81.7135 45.5354 85.0263 47.069ZM55.8867 65.3503C55.8867 82.466 55.764 84.4904 54.7211 86.7602C52.4513 91.6679 48.0957 94.3058 42.0837 94.3672C37.6668 94.3672 34.6608 93.5697 31.9002 91.7293C29.8144 90.3183 27.0538 86.7602 27.0538 85.5333C27.0538 85.1652 28.7102 83.9383 30.7346 82.834L34.4154 80.8096L36.5012 82.9567C38.1575 84.7358 39.0164 85.1652 40.9795 85.1652C45.8872 85.1652 45.7645 85.7787 45.9485 64.9822L46.1326 46.5169H51.0403H55.8867V65.3503Z" fill="#2E82B0"/>
</svg>
