<svg width="133" height="134" viewBox="0 0 133 134" fill="none" xmlns="http://www.w3.org/2000/svg">
<path d="M104.525 0.698531C94.2817 1.74378 82.993 5.85511 74.0735 11.8479C69.126 15.123 61.5305 22.9276 57.1405 29.2687L53.935 33.7982L39.3712 34.1466C30.5911 34.3556 23.9711 34.8434 22.9259 35.3312C21.8806 35.7493 19.9295 37.143 18.5358 38.3276C15.5394 40.9756 0.766542 65.4345 0.209075 68.5702C-0.278709 71.4969 1.60274 73.7268 5.22628 74.563C6.75932 74.9114 15.5394 75.2598 24.8073 75.2598H41.601L45.8517 77.3503C50.4508 79.6499 54.0744 83.2734 56.583 87.9422C58.116 90.7992 58.1857 91.7748 58.5341 110.659C58.8825 130.379 58.8825 130.449 60.5549 131.773C62.5758 133.376 65.5722 133.446 68.4989 131.982C69.7532 131.355 75.4672 128.01 81.1813 124.526C99.1596 113.795 99.1596 113.725 99.6474 94.0047L99.9958 79.5802L105.57 75.4689C114.211 69.058 120.971 61.3928 125.221 53.2399C127.172 49.4769 129.402 44.3901 130.169 42.0208C132.259 35.7493 133.374 25.2968 132.886 16.7257C132.329 6.13384 130.517 2.64967 125.082 1.39537C120.971 0.489481 110.17 0.0713799 104.525 0.698531ZM105.361 24.1122C110.588 26.7601 112.399 34.286 109.055 39.2335C106.755 42.5086 104.037 43.9023 99.7171 43.9023C96.7903 43.9023 95.8148 43.5539 93.7243 41.7421C88.9858 37.5611 88.0102 33.3104 90.7279 28.5022C93.8636 22.8579 99.5777 21.1855 105.361 24.1122Z" fill="#E8F1F2"/>
<path d="M22.9955 84.4581C15.8181 85.573 9.96473 90.3115 6.06246 97.907C2.5086 104.945 0 117.349 0 127.801V133.306L9.96473 132.888C21.7412 132.4 27.8037 131.146 34.563 127.941C43.8309 123.55 48.5694 117.279 49.2662 108.499C50.4508 93.6563 37.8381 82.0888 22.9955 84.4581ZM30.0336 101.043C32.9603 102.645 34.2843 108.15 32.6815 111.704C31.4272 114.422 26.8978 116.512 21.6019 116.931C17.2815 117.209 16.8634 117.14 16.3756 115.746C15.2607 112.053 17.9783 103.621 21.0444 101.461C22.7865 100.207 28.0127 99.9975 30.0336 101.043Z" fill="#E8F1F2"/>
</svg>
