<svg width="223" height="222" viewBox="0 0 223 222" fill="none" xmlns="http://www.w3.org/2000/svg">
<path d="M6.26667 1.46664C0 5.06664 0 5.86665 0 110.4C0 177.2 0.4 210.267 1.46667 213.067C4.53333 221.733 -1.2 221.333 111.067 221.333C211.867 221.333 213.067 221.333 216.4 218.533C218.4 217.067 220.533 213.6 221.333 210.933C222.4 207.6 222.667 174.667 222.4 106.933L222 7.73331L217.6 3.86664L213.333 -2.78196e-05H110.933C40.6667 0.133306 7.86667 0.533306 6.26667 1.46664ZM62.1333 34C68.1333 38.6666 71.6 47.8666 69.6 54.4C67.8667 60.2666 61.0667 67.7333 56.4 68.8C54.6667 69.3333 50.4 69.3333 47.0667 68.9333C42.4 68.4 39.8667 67.2 36.1333 63.4666C31.6 58.9333 31.3333 58.1333 31.3333 49.8666C31.3333 41.3333 31.4667 41.0666 36.9333 35.8666C42.1333 31.0666 43.2 30.6666 50.1333 30.6666C56.1333 30.6666 58.6667 31.3333 62.1333 34ZM169.2 83.6C181.2 87.8666 187.733 97.4667 190.533 114.8C191.333 119.467 192 138.4 192 156.8C192 186.267 191.733 190.533 189.867 191.2C187.2 192.267 162.133 192.267 159.467 191.2C157.6 190.533 157.333 186.4 157.333 159.067C157.333 117.6 155.733 112.667 141.867 111.2C132.133 110.133 126.667 113.467 123.6 122C121.6 127.867 121.333 132.667 121.733 159.6C122 185.067 121.867 190.667 120.267 191.333C117.333 192.4 90.1333 192.133 88.2667 190.933C87.0667 190 86.6667 178.267 86.9333 136.533L87.3333 83.3333H103.333H119.333L119.733 88.9333C120.133 95.0667 121.733 96.2667 124 92C126.133 88.1333 137.067 82.1333 144 81.2C152.133 80.1333 162.133 81.0666 169.2 83.6ZM67.3333 137.333V191.333H50.6667H34L33.6 138.667C33.4667 109.733 33.6 85.2 34 84.2666C34.4 83.0666 38.6667 82.6666 50.9333 82.9333L67.3333 83.3333V137.333Z" fill="#E8F1F2"/>
</svg>
