<svg width="85" height="97" viewBox="0 0 85 97" fill="none" xmlns="http://www.w3.org/2000/svg">
<path d="M21.0057 11.3333C10.2586 17.5862 1.17241 23.1552 0.781609 23.7414C0.390805 24.4253 0 35.4655 0 48.4598C0 69.6609 0.195402 72.1035 1.75862 73.4713C3.61494 75.1322 36.1494 93.9885 40.2529 95.7471C42.6954 96.9196 44.1609 96.2356 62.2356 85.8793C72.8851 79.7241 82.3621 73.9598 83.2414 72.9828C84.7069 71.615 85 69.5632 85 61.6494C85 56.2759 84.6092 51.6839 84.2184 51.3908C83.8276 51.1954 82.069 51.8793 80.3103 52.954C77.477 54.7127 77.1839 55.2989 77.1839 59.8908C77.1839 62.7241 76.5977 66.046 75.9138 67.3161C74.3506 70.4425 43.477 88.0287 41.2299 87.1494C38.592 86.2701 11.431 70.2471 9.57471 68.5862C8.01149 67.3161 7.81609 64.9713 7.81609 48.3621C7.81609 30.1897 7.91379 29.6035 10.0632 27.6494C12.6034 25.3046 41.0345 8.79311 42.5 8.79311C42.9885 8.79311 50.5115 12.8966 59.1092 17.8793C69.2701 23.7414 75.1322 27.7471 75.9138 29.3104C76.5977 30.6782 77.1839 34.977 77.1839 38.7874C77.1839 42.6954 77.477 45.9195 77.9655 45.9195C78.3563 45.9195 80.1149 45.0402 81.8736 43.9655L85 42.0115V33.8046C85 27.3563 84.6092 25.2069 83.3391 23.7414C80.9943 21.1035 44.454 1.02595e-05 42.3046 1.02595e-05C41.3276 1.02595e-05 31.7529 5.08047 21.0057 11.3333Z" fill="#006494"/>
<path d="M38.8851 18.4655C27.9425 24.1322 17.5862 30.8736 17.7816 32.2414C18.1724 33.9023 39.6667 46.8966 42.2069 46.8966C43.0862 46.8966 47.8736 44.5517 52.954 41.6207L62.0402 36.3448L62.3333 47.6782C62.5287 57.6437 62.3333 59.2069 60.8678 60.3793C57.4483 62.9196 43.2816 70.3448 41.9138 70.3448C41.1322 70.2471 36.6379 67.9023 31.7529 65.069L22.9598 59.9885L22.6667 51.977C22.3736 44.2586 22.2759 43.9655 19.5402 42.5C17.977 41.7184 16.2184 41.0345 15.6322 41.0345C15.046 41.0345 14.6552 45.2356 14.6552 52.6609V64.3851L27.0632 71.5173C33.9023 75.4253 40.2529 78.9425 41.1322 79.3333C42.1092 79.7242 46.9943 77.477 55.0058 72.8851C61.7471 68.977 67.9023 65.2644 68.7816 64.5805C70.0517 63.5058 70.3448 60.7701 70.3448 48.4598C70.3448 40.3506 69.954 33.2184 69.5632 32.6322C69.1724 32.1437 67.3161 30.6782 65.4598 29.5058L61.9425 27.454L54.2241 31.8506C42.5977 38.4943 42.5977 38.4943 37.0287 35.4655C34.3908 34.0977 32.3391 32.4368 32.5345 31.8506C32.7299 31.2644 34.5862 29.7989 36.7356 28.5288C39.569 26.8678 41.4253 26.477 44.2586 26.8678C47.8736 27.3563 53.7356 25.1092 53.7356 23.2529C53.7356 22.569 47.7759 19.0517 43.7701 17.3908C42.8908 17 40.7414 17.4885 38.8851 18.4655Z" fill="#006494"/>
</svg>
