<svg width="103" height="91" viewBox="0 0 103 91" fill="none" xmlns="http://www.w3.org/2000/svg">
<path d="M25.8787 1.9511C21.0914 4.85576 19.3701 12.1712 21.0376 22.9292C21.5217 25.9953 21.8444 28.5772 21.7369 28.6848C21.6831 28.7385 19.3701 29.653 16.573 30.7288C4.36268 35.4623 -1.50044 41.6482 0.328421 47.834C1.67317 52.46 10.0106 58.6458 18.5095 61.4429C20.0694 61.927 21.4679 62.5187 21.5755 62.7339C21.7369 62.949 21.4679 65.3158 20.9838 67.9515C19.8004 74.7828 20.2307 80.7535 22.221 84.6802C24.265 88.6607 25.8787 89.8441 29.913 90.113C35.5071 90.4895 41.5316 87.8538 48.6319 81.7756L51.4828 79.4088L54.3874 81.9369C60.7885 87.5849 67.4584 90.5433 72.8374 90.113C76.6027 89.7903 78.2702 88.5531 80.2605 84.5726C81.8204 81.399 81.8742 81.1839 81.7666 74.0836C81.659 70.1031 81.5514 65.7999 81.4976 64.5089L81.3363 62.196L85.9084 60.4747C91.9329 58.2155 95.1065 56.2791 98.6029 52.8903C103.874 47.7264 103.821 43.3694 98.3877 38.0442C95.2141 34.9782 89.1358 31.5894 83.3265 29.7068C80.637 28.8461 80.4756 28.6848 80.7446 27.34C83.3265 15.9903 81.8742 5.82398 77.1406 2.32763C75.8497 1.4132 74.8277 1.19804 71.2237 1.19804C67.4584 1.25183 66.3826 1.46699 63.8545 2.75795C60.2505 4.58681 54.9253 8.35212 53.1503 10.2886C51.4828 12.0636 50.9449 12.0636 49.0084 10.0196C46.6955 7.59906 40.1331 3.34964 36.6905 2.05868C32.8176 0.606347 28.1379 0.552557 25.8787 1.9511ZM75.5269 6.09293C78.1089 8.89002 78.9157 15.4524 77.571 22.7141C76.6565 27.8779 76.6565 27.9317 75.2042 27.609C74.4511 27.4476 71.2775 26.9097 68.2115 26.3718C62.8863 25.4574 62.5635 25.296 61.2726 23.5209C60.4657 22.4989 58.5293 20.0783 56.9156 18.1957L53.9571 14.7531L56.7542 12.1712C61.7029 7.59906 69.6638 3.88754 72.9988 4.53302C73.7519 4.69439 74.8814 5.39366 75.5269 6.09293ZM35.8837 5.93156C39.3262 7.3839 44.6514 10.8802 46.8568 13.1932L48.4167 14.8607L45.7272 17.9805C44.2749 19.7018 42.3385 22.0686 41.424 23.1982C39.8103 25.296 39.7027 25.3498 33.1404 26.5332C29.4826 27.2324 26.309 27.609 26.0401 27.34C25.4484 26.7483 24.0498 18.2495 24.0498 15.1297C24.0498 11.3106 25.3946 7.11494 27.1159 5.82398C28.9447 4.31786 32.1183 4.37165 35.8837 5.93156ZM54.1723 20.6163C58.0989 25.4036 58.2603 25.1346 51.4828 25.1346C47.1258 25.1346 45.5659 24.9732 45.5659 24.4353C45.5659 23.7361 50.8373 17.604 51.3752 17.604C51.5903 17.6578 52.8275 19.0025 54.1723 20.6163ZM58.1527 29.2227C60.5195 29.5454 60.8422 29.8144 62.7249 32.6114C65.3606 36.4843 69.7714 44.6066 69.7714 45.6286C69.7714 46.4893 62.4559 59.5065 61.0574 61.174C60.143 62.196 59.4975 62.2498 51.3214 62.2498C42.8764 62.2498 42.4998 62.196 41.424 61.0126C39.9179 59.3989 32.6562 46.5969 32.6562 45.521C32.6562 44.7142 38.5732 34.0638 40.671 31.1053C41.424 30.0295 42.3922 29.4378 43.5756 29.2765C46.5879 28.8999 55.517 28.8999 58.1527 29.2227ZM36.4216 30.2447C36.4216 31.0515 30.935 39.9269 30.4509 39.9269C29.7516 39.9269 27.1697 33.3645 27.3848 32.1273C27.6 31.0515 36.4216 29.1689 36.4216 30.2447ZM73.8594 31.0515C75.4731 31.697 75.4731 32.2349 73.8594 36.4843C72.0306 41.433 72.2457 41.4868 68.1577 34.0638L65.8447 29.8144L69.1797 30.1909C71.0624 30.406 73.1602 30.7826 73.8594 31.0515ZM23.5119 33.8486C23.7809 34.5479 24.9643 37.5063 26.0939 40.411L28.1917 45.79L27.1159 48.2106C26.5242 49.5553 25.3946 52.5138 24.5877 54.7192C22.9202 59.4527 23.0816 59.3989 16.3579 56.548C8.34314 53.1592 3.6634 48.9636 3.60961 45.1445C3.60961 42.0785 11.7319 36.054 19.2087 33.6872C22.974 32.4501 22.9202 32.4501 23.5119 33.8486ZM86.7691 35.1934C91.395 37.1298 96.8816 41.1641 98.2263 43.477C100.378 47.3499 95.0527 52.6751 84.7788 56.8708C82.681 57.7852 80.5832 58.4845 80.2067 58.4845C79.8301 58.4845 79.1309 57.3549 78.593 55.9025C78.1089 54.504 76.9793 51.5993 76.0648 49.4477L74.5049 45.521L76.1724 41.2716C77.0868 38.9587 77.8399 36.8608 77.8399 36.6995C77.8399 36.5381 78.2164 35.5699 78.6468 34.4941C79.5612 32.2887 79.9915 32.2887 86.7691 35.1934ZM32.4411 53.7509C33.2479 55.3108 34.4313 57.5162 35.1306 58.592C35.8299 59.7216 36.4216 60.7436 36.4216 60.905C36.4216 61.3891 33.5169 61.2277 30.3433 60.5823C26.8469 59.883 26.6856 59.5065 28.2455 55.4184C28.8372 54.0199 29.4288 52.4062 29.5902 51.8683C30.1819 50.3084 30.9888 50.8463 32.4411 53.7509ZM74.1822 55.0419C75.0428 57.3011 75.5807 59.3451 75.4193 59.5603C75.0966 60.0444 66.5978 61.4429 66.2212 61.0126C65.7909 60.6361 71.5465 50.9538 72.1919 50.9538C72.5147 50.9538 73.3753 52.7827 74.1822 55.0419ZM77.7861 67.306C78.5392 71.3941 78.5392 78.7633 77.7861 81.1301C77.4096 82.1521 76.5489 83.7658 75.8497 84.6802C74.6663 86.2939 74.2898 86.4553 71.7616 86.4553C69.879 86.4553 67.9963 85.9712 66.0061 85.0567C62.7249 83.5506 55.3557 78.2254 54.9253 77.042C54.764 76.6117 55.9473 74.6215 57.5073 72.6312C59.121 70.641 60.9498 68.2205 61.5953 67.2522C62.6173 65.7999 63.209 65.4772 65.8985 65.1544C67.566 64.9931 70.6858 64.5089 72.7298 64.1324C74.8277 63.8097 76.6565 63.6483 76.8179 63.8097C76.9793 63.971 77.4096 65.5847 77.7861 67.306ZM35.0768 64.9393C39.0573 65.4234 40.0793 65.7461 40.7248 66.7143C41.1551 67.3598 43.0377 69.7804 44.9204 72.1471C46.803 74.4601 48.2016 76.6655 48.0402 77.0958C47.6099 78.2254 41.424 82.5824 37.3898 84.6264C33.3555 86.6704 29.4288 87.047 27.4386 85.6484C24.5339 83.6044 23.4044 74.3525 25.0719 66.8757L25.7711 63.7559L27.9765 64.0248C29.2137 64.1862 32.4411 64.6165 35.0768 64.9393ZM56.5928 67.4674C56.1087 68.328 54.7102 70.0493 53.5806 71.3941L51.429 73.8146L49.2236 71.3941C48.0402 70.0493 46.5879 68.328 45.9962 67.4674L44.9742 66.0151H51.2138H57.4535L56.5928 67.4674Z" fill="#2E82B0"/>
<path d="M47.9864 37.4525C44.2749 39.1738 42.3384 42.0785 42.3384 45.8975C42.3384 51.1152 48.4705 55.7949 53.3116 54.1812C62.0256 51.3303 62.4559 40.7875 54.0647 37.2373C51.4827 36.2153 50.6221 36.2153 47.9864 37.4525Z" fill="#2E82B0"/>
</svg>
